<svg width="160" height="160" viewBox="0 0 160 160" xmlns="http://www.w3.org/2000/svg">
  <rect x="0" y="0" width="10" height="10" fill="#767676" />
  <rect x="10" y="0" width="10" height="10" fill="#919191" />
  <rect x="40" y="0" width="10" height="10" fill="#7F5F22" />
  <rect x="50" y="0" width="10" height="10" fill="#956C2E" />
  <rect x="60" y="0" width="10" height="10" fill="#956C2E" />
  <rect x="70" y="0" width="10" height="10" fill="#84622F" />
  <rect x="80" y="0" width="10" height="10" fill="#956C2E" />
  <rect x="90" y="0" width="10" height="10" fill="#7F5F22" />
  <rect x="100" y="0" width="10" height="10" fill="#373127" />
  <rect x="40" y="10" width="10" height="10" fill="#392600" />
  <rect x="50" y="10" width="10" height="10" fill="#392600" />
  <rect x="60" y="10" width="10" height="10" fill="#482C00" />
  <rect x="70" y="10" width="10" height="10" fill="#7F5F22" />
  <rect x="80" y="10" width="10" height="10" fill="#A47227" />
  <rect x="90" y="10" width="10" height="10" fill="#8F691D" />
  <rect x="100" y="10" width="10" height="10" fill="#332E25" />
  <rect x="40" y="20" width="10" height="10" fill="#442900" />
  <rect x="50" y="20" width="10" height="10" fill="#442900" />
  <rect x="60" y="20" width="10" height="10" fill="#392600" />
  <rect x="70" y="20" width="10" height="10" fill="#7F5F22" />
  <rect x="80" y="20" width="10" height="10" fill="#AB792D" />
  <rect x="90" y="20" width="10" height="10" fill="#A47227" />
  <rect x="100" y="20" width="10" height="10" fill="#332E25" />
  <rect x="40" y="30" width="10" height="10" fill="#332E25" />
  <rect x="50" y="30" width="10" height="10" fill="#332E25" />
  <rect x="60" y="30" width="10" height="10" fill="#373127" />
  <rect x="70" y="30" width="10" height="10" fill="#332E25" />
  <rect x="80" y="30" width="10" height="10" fill="#373127" />
  <rect x="90" y="30" width="10" height="10" fill="#373127" />
  <rect x="100" y="30" width="10" height="10" fill="#28241D" />
  <rect x="0" y="40" width="10" height="10" fill="#AB792D" />
  <rect x="10" y="40" width="10" height="10" fill="#AB792D" />
  <rect x="20" y="40" width="10" height="10" fill="#8F691D" />
  <rect x="30" y="40" width="10" height="10" fill="#463E32" />
  <rect x="40" y="40" width="10" height="10" fill="#A47227" />
  <rect x="50" y="40" width="10" height="10" fill="#A47227" />
  <rect x="60" y="40" width="10" height="10" fill="#8F691D" />
  <rect x="70" y="40" width="10" height="10" fill="#AB792D" />
  <rect x="80" y="40" width="10" height="10" fill="#AB792D" />
  <rect x="90" y="40" width="10" height="10" fill="#8F691D" />
  <rect x="100" y="40" width="10" height="10" fill="#463E32" />
  <rect x="110" y="40" width="10" height="10" fill="#A47227" />
  <rect x="120" y="40" width="10" height="10" fill="#855C1F" />
  <rect x="130" y="40" width="10" height="10" fill="#8F691D" />
  <rect x="40" y="50" width="10" height="10" fill="#AB792D" />
  <rect x="50" y="50" width="10" height="10" fill="#8F691D" />
  <rect x="60" y="50" width="10" height="10" fill="#A47227" />
  <rect x="70" y="50" width="10" height="10" fill="#956C2E" />
  <rect x="80" y="50" width="10" height="10" fill="#000000" />
  <rect x="90" y="50" width="10" height="10" fill="#000000" />
  <rect x="100" y="50" width="10" height="10" fill="#373127" />
  <rect x="40" y="60" width="10" height="10" fill="#AB792D" />
  <rect x="50" y="60" width="10" height="10" fill="#AB792D" />
  <rect x="60" y="60" width="10" height="10" fill="#AB792D" />
  <rect x="70" y="60" width="10" height="10" fill="#956C2E" />
  <rect x="80" y="60" width="10" height="10" fill="#000000" />
  <rect x="90" y="60" width="10" height="10" fill="#000000" />
  <rect x="100" y="60" width="10" height="10" fill="#332E25" />
  <rect x="40" y="70" width="10" height="10" fill="#8F691D" />
  <rect x="50" y="70" width="10" height="10" fill="#AB792D" />
  <rect x="60" y="70" width="10" height="10" fill="#A47227" />
  <rect x="70" y="70" width="10" height="10" fill="#7F5F22" />
  <rect x="80" y="70" width="10" height="10" fill="#000000" />
  <rect x="90" y="70" width="10" height="10" fill="#000000" />
  <rect x="100" y="70" width="10" height="10" fill="#373127" />
  <rect x="0" y="80" width="10" height="10" fill="#2A251E" />
  <rect x="10" y="80" width="10" height="10" fill="#2A251D" />
  <rect x="20" y="80" width="10" height="10" fill="#2A251E" />
  <rect x="30" y="80" width="10" height="10" fill="#2A251D" />
  <rect x="40" y="80" width="10" height="10" fill="#2A251E" />
  <rect x="50" y="80" width="10" height="10" fill="#2A251E" />
  <rect x="60" y="80" width="10" height="10" fill="#2C251D" />
  <rect x="70" y="80" width="10" height="10" fill="#2A251E" />
  <rect x="80" y="80" width="10" height="10" fill="#2A251D" />
  <rect x="90" y="80" width="10" height="10" fill="#2A251E" />
  <rect x="100" y="80" width="10" height="10" fill="#2A251D" />
  <rect x="110" y="80" width="10" height="10" fill="#2A251E" />
  <rect x="120" y="80" width="10" height="10" fill="#2A251E" />
  <rect x="130" y="80" width="10" height="10" fill="#2C251D" />
  <rect x="0" y="90" width="10" height="10" fill="#90662A" />
  <rect x="10" y="90" width="10" height="10" fill="#8F691D" />
  <rect x="20" y="90" width="10" height="10" fill="#AB792D" />
  <rect x="30" y="90" width="10" height="10" fill="#463E32" />
  <rect x="40" y="90" width="10" height="10" fill="#A47227" />
  <rect x="50" y="90" width="10" height="10" fill="#8F691D" />
  <rect x="60" y="90" width="10" height="10" fill="#A47227" />
  <rect x="70" y="90" width="10" height="10" fill="#90662A" />
  <rect x="80" y="90" width="10" height="10" fill="#8F691D" />
  <rect x="90" y="90" width="10" height="10" fill="#AB792D" />
  <rect x="100" y="90" width="10" height="10" fill="#463E32" />
  <rect x="110" y="90" width="10" height="10" fill="#A47227" />
  <rect x="120" y="90" width="10" height="10" fill="#8F691D" />
  <rect x="130" y="90" width="10" height="10" fill="#A47227" />
  <rect x="0" y="100" width="10" height="10" fill="#775A30" />
  <rect x="10" y="100" width="10" height="10" fill="#695229" />
  <rect x="20" y="100" width="10" height="10" fill="#775A30" />
  <rect x="30" y="100" width="10" height="10" fill="#463E32" />
  <rect x="40" y="100" width="10" height="10" fill="#775A30" />
  <rect x="50" y="100" width="10" height="10" fill="#695229" />
  <rect x="60" y="100" width="10" height="10" fill="#73562E" />
  <rect x="70" y="100" width="10" height="10" fill="#775A30" />
  <rect x="80" y="100" width="10" height="10" fill="#695229" />
  <rect x="90" y="100" width="10" height="10" fill="#775A30" />
  <rect x="100" y="100" width="10" height="10" fill="#463E32" />
  <rect x="110" y="100" width="10" height="10" fill="#775A30" />
  <rect x="120" y="100" width="10" height="10" fill="#45351A" />
  <rect x="130" y="100" width="10" height="10" fill="#73562E" />
</svg>