<svg width="160" height="160" viewBox="0 0 160 160" xmlns="http://www.w3.org/2000/svg">
  <rect x="60" y="20" width="10" height="10" fill="#0E3F36" />
  <rect x="70" y="20" width="10" height="10" fill="#0E3F36" />
  <rect x="80" y="20" width="10" height="10" fill="#0E3F36" />
  <rect x="90" y="20" width="10" height="10" fill="#0E3F36" />
  <rect x="100" y="20" width="10" height="10" fill="#0E3F36" />
  <rect x="50" y="30" width="10" height="10" fill="#0E3F36" />
  <rect x="60" y="30" width="10" height="10" fill="#33EBCB" />
  <rect x="70" y="30" width="10" height="10" fill="#2BC7AC" />
  <rect x="80" y="30" width="10" height="10" fill="#27B29A" />
  <rect x="90" y="30" width="10" height="10" fill="#27B29A" />
  <rect x="100" y="30" width="10" height="10" fill="#2BC7AC" />
  <rect x="110" y="30" width="10" height="10" fill="#0E3F36" />
  <rect x="120" y="30" width="10" height="10" fill="#493615" />
  <rect x="130" y="30" width="10" height="10" fill="#684E1E" />
  <rect x="60" y="40" width="10" height="10" fill="#0E3F36" />
  <rect x="70" y="40" width="10" height="10" fill="#082520" />
  <rect x="80" y="40" width="10" height="10" fill="#082520" />
  <rect x="90" y="40" width="10" height="10" fill="#082520" />
  <rect x="100" y="40" width="10" height="10" fill="#27B29A" />
  <rect x="110" y="40" width="10" height="10" fill="#27B29A" />
  <rect x="120" y="40" width="10" height="10" fill="#896727" />
  <rect x="130" y="40" width="10" height="10" fill="#281E0B" />
  <rect x="100" y="50" width="10" height="10" fill="#493615" />
  <rect x="110" y="50" width="10" height="10" fill="#2BC7AC" />
  <rect x="120" y="50" width="10" height="10" fill="#27B29A" />
  <rect x="130" y="50" width="10" height="10" fill="#082520" />
  <rect x="90" y="60" width="10" height="10" fill="#493615" />
  <rect x="100" y="60" width="10" height="10" fill="#684E1E" />
  <rect x="110" y="60" width="10" height="10" fill="#281E0B" />
  <rect x="120" y="60" width="10" height="10" fill="#27B29A" />
  <rect x="130" y="60" width="10" height="10" fill="#2BC7AC" />
  <rect x="140" y="60" width="10" height="10" fill="#082520" />
  <rect x="80" y="70" width="10" height="10" fill="#493615" />
  <rect x="90" y="70" width="10" height="10" fill="#896727" />
  <rect x="100" y="70" width="10" height="10" fill="#281E0B" />
  <rect x="120" y="70" width="10" height="10" fill="#082520" />
  <rect x="130" y="70" width="10" height="10" fill="#27B29A" />
  <rect x="140" y="70" width="10" height="10" fill="#082520" />
  <rect x="70" y="80" width="10" height="10" fill="#493615" />
  <rect x="80" y="80" width="10" height="10" fill="#684E1E" />
  <rect x="90" y="80" width="10" height="10" fill="#281E0B" />
  <rect x="120" y="80" width="10" height="10" fill="#082520" />
  <rect x="130" y="80" width="10" height="10" fill="#27B29A" />
  <rect x="140" y="80" width="10" height="10" fill="#082520" />
  <rect x="60" y="90" width="10" height="10" fill="#493615" />
  <rect x="70" y="90" width="10" height="10" fill="#896727" />
  <rect x="80" y="90" width="10" height="10" fill="#281E0B" />
  <rect x="120" y="90" width="10" height="10" fill="#082520" />
  <rect x="130" y="90" width="10" height="10" fill="#2BC7AC" />
  <rect x="140" y="90" width="10" height="10" fill="#082520" />
  <rect x="50" y="100" width="10" height="10" fill="#493615" />
  <rect x="60" y="100" width="10" height="10" fill="#684E1E" />
  <rect x="70" y="100" width="10" height="10" fill="#281E0B" />
  <rect x="120" y="100" width="10" height="10" fill="#082520" />
  <rect x="130" y="100" width="10" height="10" fill="#33EBCB" />
  <rect x="140" y="100" width="10" height="10" fill="#082520" />
  <rect x="40" y="110" width="10" height="10" fill="#493615" />
  <rect x="50" y="110" width="10" height="10" fill="#896727" />
  <rect x="60" y="110" width="10" height="10" fill="#281E0B" />
  <rect x="130" y="110" width="10" height="10" fill="#082520" />
  <rect x="30" y="120" width="10" height="10" fill="#493615" />
  <rect x="40" y="120" width="10" height="10" fill="#684E1E" />
  <rect x="50" y="120" width="10" height="10" fill="#281E0B" />
  <rect x="20" y="130" width="10" height="10" fill="#493615" />
  <rect x="30" y="130" width="10" height="10" fill="#896727" />
  <rect x="40" y="130" width="10" height="10" fill="#281E0B" />
  <rect x="20" y="140" width="10" height="10" fill="#281E0B" />
  <rect x="30" y="140" width="10" height="10" fill="#281E0B" />
</svg>