<svg width="160" height="160" viewBox="0 0 160 160" xmlns="http://www.w3.org/2000/svg">
  <rect x="0" y="0" width="10" height="10" fill="#D0EAE9" />
  <rect x="10" y="0" width="10" height="10" fill="#D0EAE9" />
  <rect x="20" y="0" width="10" height="10" fill="#D0EAE9" />
  <rect x="30" y="0" width="10" height="10" fill="#D0EAE9" />
  <rect x="40" y="0" width="10" height="10" fill="#D0EAE9" />
  <rect x="50" y="0" width="10" height="10" fill="#D0EAE9" />
  <rect x="60" y="0" width="10" height="10" fill="#D0EAE9" />
  <rect x="70" y="0" width="10" height="10" fill="#D0EAE9" />
  <rect x="80" y="0" width="10" height="10" fill="#D0EAE9" />
  <rect x="90" y="0" width="10" height="10" fill="#D0EAE9" />
  <rect x="100" y="0" width="10" height="10" fill="#D0EAE9" />
  <rect x="110" y="0" width="10" height="10" fill="#D0EAE9" />
  <rect x="120" y="0" width="10" height="10" fill="#D0EAE9" />
  <rect x="130" y="0" width="10" height="10" fill="#D0EAE9" />
  <rect x="140" y="0" width="10" height="10" fill="#D0EAE9" />
  <rect x="150" y="0" width="10" height="10" fill="#A8D0D9" />
  <rect x="0" y="10" width="10" height="10" fill="#D0EAE9" />
  <rect x="150" y="10" width="10" height="10" fill="#A8D0D9" />
  <rect x="0" y="20" width="10" height="10" fill="#D0EAE9" />
  <rect x="40" y="20" width="10" height="10" fill="#D0EAE9" />
  <rect x="150" y="20" width="10" height="10" fill="#7BAEB7" />
  <rect x="0" y="30" width="10" height="10" fill="#D0EAE9" />
  <rect x="30" y="30" width="10" height="10" fill="#D0EAE9" />
  <rect x="150" y="30" width="10" height="10" fill="#7BAEB7" />
  <rect x="0" y="40" width="10" height="10" fill="#D0EAE9" />
  <rect x="20" y="40" width="10" height="10" fill="#A8D0D9" />
  <rect x="150" y="40" width="10" height="10" fill="#7BAEB7" />
  <rect x="0" y="50" width="10" height="10" fill="#D0EAE9" />
  <rect x="150" y="50" width="10" height="10" fill="#8BC1CD" />
  <rect x="0" y="60" width="10" height="10" fill="#D0EAE9" />
  <rect x="150" y="60" width="10" height="10" fill="#7BAEB7" />
  <rect x="0" y="70" width="10" height="10" fill="#D0EAE9" />
  <rect x="150" y="70" width="10" height="10" fill="#8BC1CD" />
  <rect x="0" y="80" width="10" height="10" fill="#D0EAE9" />
  <rect x="150" y="80" width="10" height="10" fill="#8BC1CD" />
  <rect x="0" y="90" width="10" height="10" fill="#D0EAE9" />
  <rect x="150" y="90" width="10" height="10" fill="#8BC1CD" />
  <rect x="0" y="100" width="10" height="10" fill="#D0EAE9" />
  <rect x="150" y="100" width="10" height="10" fill="#8BC1CD" />
  <rect x="0" y="110" width="10" height="10" fill="#D0EAE9" />
  <rect x="150" y="110" width="10" height="10" fill="#8BC1CD" />
  <rect x="0" y="120" width="10" height="10" fill="#A8D0D9" />
  <rect x="130" y="120" width="10" height="10" fill="#D0EAE9" />
  <rect x="150" y="120" width="10" height="10" fill="#8BC1CD" />
  <rect x="0" y="130" width="10" height="10" fill="#D0EAE9" />
  <rect x="120" y="130" width="10" height="10" fill="#D0EAE9" />
  <rect x="150" y="130" width="10" height="10" fill="#8BC1CD" />
  <rect x="0" y="140" width="10" height="10" fill="#A8D0D9" />
  <rect x="150" y="140" width="10" height="10" fill="#A8D0D9" />
  <rect x="0" y="150" width="10" height="10" fill="#A8D0D9" />
  <rect x="10" y="150" width="10" height="10" fill="#A8D0D9" />
  <rect x="20" y="150" width="10" height="10" fill="#8BC1CD" />
  <rect x="30" y="150" width="10" height="10" fill="#A8D0D9" />
  <rect x="40" y="150" width="10" height="10" fill="#8BC1CD" />
  <rect x="50" y="150" width="10" height="10" fill="#8BC1CD" />
  <rect x="60" y="150" width="10" height="10" fill="#8BC1CD" />
  <rect x="70" y="150" width="10" height="10" fill="#8BC1CD" />
  <rect x="80" y="150" width="10" height="10" fill="#8BC1CD" />
  <rect x="90" y="150" width="10" height="10" fill="#8BC1CD" />
  <rect x="100" y="150" width="10" height="10" fill="#8BC1CD" />
  <rect x="110" y="150" width="10" height="10" fill="#8BC1CD" />
  <rect x="120" y="150" width="10" height="10" fill="#8BC1CD" />
  <rect x="130" y="150" width="10" height="10" fill="#8BC1CD" />
  <rect x="140" y="150" width="10" height="10" fill="#A8D0D9" />
  <rect x="150" y="150" width="10" height="10" fill="#A8D0D9" />
</svg>