<svg width="160" height="160" viewBox="0 0 160 160" xmlns="http://www.w3.org/2000/svg">
  <rect x="0" y="0" width="10" height="10" fill="#949494" />
  <rect x="10" y="0" width="10" height="10" fill="#C3C3C3" />
  <rect x="20" y="0" width="10" height="10" fill="#939393" />
  <rect x="30" y="0" width="10" height="10" fill="#868686" />
  <rect x="40" y="0" width="10" height="10" fill="#868686" />
  <rect x="50" y="0" width="10" height="10" fill="#8F8F8F" />
  <rect x="60" y="0" width="10" height="10" fill="#7F7F7F" />
  <rect x="70" y="0" width="10" height="10" fill="#8C8C8C" />
  <rect x="80" y="0" width="10" height="10" fill="#9E9E9E" />
  <rect x="90" y="0" width="10" height="10" fill="#969696" />
  <rect x="100" y="0" width="10" height="10" fill="#8A8A8A" />
  <rect x="110" y="0" width="10" height="10" fill="#878787" />
  <rect x="120" y="0" width="10" height="10" fill="#898989" />
  <rect x="130" y="0" width="10" height="10" fill="#A7A7A7" />
  <rect x="140" y="0" width="10" height="10" fill="#707070" />
  <rect x="150" y="0" width="10" height="10" fill="#8D8D8D" />
  <rect x="0" y="10" width="10" height="10" fill="#959595" />
  <rect x="10" y="10" width="10" height="10" fill="#8C8C8C" />
  <rect x="20" y="10" width="10" height="10" fill="#A0A0A0" />
  <rect x="30" y="10" width="10" height="10" fill="#979797" />
  <rect x="40" y="10" width="10" height="10" fill="#999999" />
  <rect x="50" y="10" width="10" height="10" fill="#808080" />
  <rect x="60" y="10" width="10" height="10" fill="#999999" />
  <rect x="70" y="10" width="10" height="10" fill="#828282" />
  <rect x="80" y="10" width="10" height="10" fill="#7F7F7F" />
  <rect x="90" y="10" width="10" height="10" fill="#A9A9A9" />
  <rect x="100" y="10" width="10" height="10" fill="#A6A6A6" />
  <rect x="110" y="10" width="10" height="10" fill="#939393" />
  <rect x="120" y="10" width="10" height="10" fill="#C3C3C3" />
  <rect x="130" y="10" width="10" height="10" fill="#8C8C8C" />
  <rect x="140" y="10" width="10" height="10" fill="#878787" />
  <rect x="150" y="10" width="10" height="10" fill="#8B8B8B" />
  <rect x="0" y="20" width="10" height="10" fill="#A3A3A3" />
  <rect x="10" y="20" width="10" height="10" fill="#8D8D8D" />
  <rect x="20" y="20" width="10" height="10" fill="#7D7D7D" />
  <rect x="30" y="20" width="10" height="10" fill="#848484" />
  <rect x="40" y="20" width="10" height="10" fill="#898989" />
  <rect x="50" y="20" width="10" height="10" fill="#888888" />
  <rect x="60" y="20" width="10" height="10" fill="#909090" />
  <rect x="70" y="20" width="10" height="10" fill="#909090" />
  <rect x="80" y="20" width="10" height="10" fill="#949494" />
  <rect x="90" y="20" width="10" height="10" fill="#9F9F9F" />
  <rect x="100" y="20" width="10" height="10" fill="#A8A8A8" />
  <rect x="110" y="20" width="10" height="10" fill="#ADADAD" />
  <rect x="120" y="20" width="10" height="10" fill="#878787" />
  <rect x="130" y="20" width="10" height="10" fill="#777777" />
  <rect x="140" y="20" width="10" height="10" fill="#808080" />
  <rect x="150" y="20" width="10" height="10" fill="#B6B6B6" />
  <rect x="0" y="30" width="10" height="10" fill="#767676" />
  <rect x="10" y="30" width="10" height="10" fill="#858585" />
  <rect x="20" y="30" width="10" height="10" fill="#8A8A8A" />
  <rect x="30" y="30" width="10" height="10" fill="#979797" />
  <rect x="40" y="30" width="10" height="10" fill="#919191" />
  <rect x="50" y="30" width="10" height="10" fill="#999999" />
  <rect x="60" y="30" width="10" height="10" fill="#7D7D7D" />
  <rect x="70" y="30" width="10" height="10" fill="#929292" />
  <rect x="80" y="30" width="10" height="10" fill="#7F7F7F" />
  <rect x="90" y="30" width="10" height="10" fill="#838383" />
  <rect x="100" y="30" width="10" height="10" fill="#8D8D8D" />
  <rect x="110" y="30" width="10" height="10" fill="#979797" />
  <rect x="120" y="30" width="10" height="10" fill="#8F8F8F" />
  <rect x="130" y="30" width="10" height="10" fill="#8B8B8B" />
  <rect x="140" y="30" width="10" height="10" fill="#A7A7A7" />
  <rect x="150" y="30" width="10" height="10" fill="#7D7D7D" />
  <rect x="0" y="40" width="10" height="10" fill="#A2A2A2" />
  <rect x="10" y="40" width="10" height="10" fill="#838383" />
  <rect x="20" y="40" width="10" height="10" fill="#ADADAD" />
  <rect x="30" y="40" width="10" height="10" fill="#838383" />
  <rect x="40" y="40" width="10" height="10" fill="#ACACAC" />
  <rect x="50" y="40" width="10" height="10" fill="#AEAEAE" />
  <rect x="60" y="40" width="10" height="10" fill="#888888" />
  <rect x="70" y="40" width="10" height="10" fill="#ACACAC" />
  <rect x="80" y="40" width="10" height="10" fill="#BABABA" />
  <rect x="90" y="40" width="10" height="10" fill="#757575" />
  <rect x="100" y="40" width="10" height="10" fill="#808080" />
  <rect x="110" y="40" width="10" height="10" fill="#A7A7A7" />
  <rect x="120" y="40" width="10" height="10" fill="#ABABAB" />
  <rect x="130" y="40" width="10" height="10" fill="#7E7E7E" />
  <rect x="140" y="40" width="10" height="10" fill="#888888" />
  <rect x="150" y="40" width="10" height="10" fill="#8D8D8D" />
  <rect x="0" y="50" width="10" height="10" fill="#999999" />
  <rect x="10" y="50" width="10" height="10" fill="#989898" />
  <rect x="20" y="50" width="10" height="10" fill="#787878" />
  <rect x="30" y="50" width="10" height="10" fill="#A6A6A6" />
  <rect x="40" y="50" width="10" height="10" fill="#818181" />
  <rect x="50" y="50" width="10" height="10" fill="#969696" />
  <rect x="60" y="50" width="10" height="10" fill="#959595" />
  <rect x="70" y="50" width="10" height="10" fill="#9B9B9B" />
  <rect x="80" y="50" width="10" height="10" fill="#878787" />
  <rect x="90" y="50" width="10" height="10" fill="#959595" />
  <rect x="100" y="50" width="10" height="10" fill="#888888" />
  <rect x="110" y="50" width="10" height="10" fill="#838383" />
  <rect x="120" y="50" width="10" height="10" fill="#787878" />
  <rect x="130" y="50" width="10" height="10" fill="#888888" />
  <rect x="140" y="50" width="10" height="10" fill="#8E8E8E" />
  <rect x="150" y="50" width="10" height="10" fill="#949494" />
  <rect x="0" y="60" width="10" height="10" fill="#7E7E7E" />
  <rect x="10" y="60" width="10" height="10" fill="#9C9C9C" />
  <rect x="20" y="60" width="10" height="10" fill="#A5A5A5" />
  <rect x="30" y="60" width="10" height="10" fill="#909090" />
  <rect x="40" y="60" width="10" height="10" fill="#929292" />
  <rect x="50" y="60" width="10" height="10" fill="#838383" />
  <rect x="60" y="60" width="10" height="10" fill="#8A8A8A" />
  <rect x="70" y="60" width="10" height="10" fill="#7F7F7F" />
  <rect x="80" y="60" width="10" height="10" fill="#848484" />
  <rect x="90" y="60" width="10" height="10" fill="#878787" />
  <rect x="100" y="60" width="10" height="10" fill="#B5B5B5" />
  <rect x="110" y="60" width="10" height="10" fill="#ACACAC" />
  <rect x="120" y="60" width="10" height="10" fill="#919191" />
  <rect x="130" y="60" width="10" height="10" fill="#A7A7A7" />
  <rect x="140" y="60" width="10" height="10" fill="#979797" />
  <rect x="150" y="60" width="10" height="10" fill="#8F8F8F" />
  <rect x="0" y="70" width="10" height="10" fill="#8F8F8F" />
  <rect x="10" y="70" width="10" height="10" fill="#878787" />
  <rect x="20" y="70" width="10" height="10" fill="#9D9D9D" />
  <rect x="30" y="70" width="10" height="10" fill="#8B8B8B" />
  <rect x="40" y="70" width="10" height="10" fill="#909090" />
  <rect x="50" y="70" width="10" height="10" fill="#7C7C7C" />
  <rect x="60" y="70" width="10" height="10" fill="#A4A4A4" />
  <rect x="70" y="70" width="10" height="10" fill="#848484" />
  <rect x="80" y="70" width="10" height="10" fill="#979797" />
  <rect x="90" y="70" width="10" height="10" fill="#ADADAD" />
  <rect x="100" y="70" width="10" height="10" fill="#878787" />
  <rect x="110" y="70" width="10" height="10" fill="#818181" />
  <rect x="120" y="70" width="10" height="10" fill="#8F8F8F" />
  <rect x="130" y="70" width="10" height="10" fill="#A0A0A0" />
  <rect x="140" y="70" width="10" height="10" fill="#7F7F7F" />
  <rect x="150" y="70" width="10" height="10" fill="#A9A9A9" />
  <rect x="0" y="80" width="10" height="10" fill="#A7A7A7" />
  <rect x="10" y="80" width="10" height="10" fill="#9B9B9B" />
  <rect x="20" y="80" width="10" height="10" fill="#B6B6B6" />
  <rect x="30" y="80" width="10" height="10" fill="#AAAAAA" />
  <rect x="40" y="80" width="10" height="10" fill="#ACACAC" />
  <rect x="50" y="80" width="10" height="10" fill="#818181" />
  <rect x="60" y="80" width="10" height="10" fill="#ADADAD" />
  <rect x="70" y="80" width="10" height="10" fill="#9C9C9C" />
  <rect x="80" y="80" width="10" height="10" fill="#B3B3B3" />
  <rect x="90" y="80" width="10" height="10" fill="#AAAAAA" />
  <rect x="100" y="80" width="10" height="10" fill="#828282" />
  <rect x="110" y="80" width="10" height="10" fill="#929292" />
  <rect x="120" y="80" width="10" height="10" fill="#858585" />
  <rect x="130" y="80" width="10" height="10" fill="#939393" />
  <rect x="140" y="80" width="10" height="10" fill="#9E9E9E" />
  <rect x="150" y="80" width="10" height="10" fill="#7E7E7E" />
  <rect x="0" y="90" width="10" height="10" fill="#979797" />
  <rect x="10" y="90" width="10" height="10" fill="#828282" />
  <rect x="20" y="90" width="10" height="10" fill="#B7B7B7" />
  <rect x="30" y="90" width="10" height="10" fill="#8D8D8D" />
  <rect x="40" y="90" width="10" height="10" fill="#8C8C8C" />
  <rect x="50" y="90" width="10" height="10" fill="#989898" />
  <rect x="60" y="90" width="10" height="10" fill="#AAAAAA" />
  <rect x="70" y="90" width="10" height="10" fill="#808080" />
  <rect x="80" y="90" width="10" height="10" fill="#878787" />
  <rect x="90" y="90" width="10" height="10" fill="#919191" />
  <rect x="100" y="90" width="10" height="10" fill="#929292" />
  <rect x="110" y="90" width="10" height="10" fill="#A9A9A9" />
  <rect x="120" y="90" width="10" height="10" fill="#8E8E8E" />
  <rect x="130" y="90" width="10" height="10" fill="#B3B3B3" />
  <rect x="140" y="90" width="10" height="10" fill="#8F8F8F" />
  <rect x="150" y="90" width="10" height="10" fill="#818181" />
  <rect x="0" y="100" width="10" height="10" fill="#9B9B9B" />
  <rect x="10" y="100" width="10" height="10" fill="#9E9E9E" />
  <rect x="20" y="100" width="10" height="10" fill="#979797" />
  <rect x="30" y="100" width="10" height="10" fill="#A5A5A5" />
  <rect x="40" y="100" width="10" height="10" fill="#828282" />
  <rect x="50" y="100" width="10" height="10" fill="#B6B6B6" />
  <rect x="60" y="100" width="10" height="10" fill="#8E8E8E" />
  <rect x="70" y="100" width="10" height="10" fill="#939393" />
  <rect x="80" y="100" width="10" height="10" fill="#C0C0C0" />
  <rect x="90" y="100" width="10" height="10" fill="#797979" />
  <rect x="100" y="100" width="10" height="10" fill="#A7A7A7" />
  <rect x="110" y="100" width="10" height="10" fill="#838383" />
  <rect x="120" y="100" width="10" height="10" fill="#8F8F8F" />
  <rect x="130" y="100" width="10" height="10" fill="#888888" />
  <rect x="140" y="100" width="10" height="10" fill="#979797" />
  <rect x="150" y="100" width="10" height="10" fill="#8F8F8F" />
  <rect x="0" y="110" width="10" height="10" fill="#848484" />
  <rect x="10" y="110" width="10" height="10" fill="#ADADAD" />
  <rect x="20" y="110" width="10" height="10" fill="#868686" />
  <rect x="30" y="110" width="10" height="10" fill="#A3A3A3" />
  <rect x="40" y="110" width="10" height="10" fill="#979797" />
  <rect x="50" y="110" width="10" height="10" fill="#848484" />
  <rect x="60" y="110" width="10" height="10" fill="#929292" />
  <rect x="70" y="110" width="10" height="10" fill="#898989" />
  <rect x="80" y="110" width="10" height="10" fill="#979797" />
  <rect x="90" y="110" width="10" height="10" fill="#929292" />
  <rect x="100" y="110" width="10" height="10" fill="#8C8C8C" />
  <rect x="110" y="110" width="10" height="10" fill="#7B7B7B" />
  <rect x="120" y="110" width="10" height="10" fill="#B3B3B3" />
  <rect x="130" y="110" width="10" height="10" fill="#7F7F7F" />
  <rect x="140" y="110" width="10" height="10" fill="#7D7D7D" />
  <rect x="150" y="110" width="10" height="10" fill="#8A8A8A" />
  <rect x="0" y="120" width="10" height="10" fill="#BABABA" />
  <rect x="10" y="120" width="10" height="10" fill="#979797" />
  <rect x="20" y="120" width="10" height="10" fill="#818181" />
  <rect x="30" y="120" width="10" height="10" fill="#8A8A8A" />
  <rect x="40" y="120" width="10" height="10" fill="#999999" />
  <rect x="50" y="120" width="10" height="10" fill="#919191" />
  <rect x="60" y="120" width="10" height="10" fill="#858585" />
  <rect x="70" y="120" width="10" height="10" fill="#7A7A7A" />
  <rect x="80" y="120" width="10" height="10" fill="#8A8A8A" />
  <rect x="90" y="120" width="10" height="10" fill="#919191" />
  <rect x="100" y="120" width="10" height="10" fill="#8A8A8A" />
  <rect x="110" y="120" width="10" height="10" fill="#7D7D7D" />
  <rect x="120" y="120" width="10" height="10" fill="#9F9F9F" />
  <rect x="130" y="120" width="10" height="10" fill="#A5A5A5" />
  <rect x="140" y="120" width="10" height="10" fill="#797979" />
  <rect x="150" y="120" width="10" height="10" fill="#979797" />
  <rect x="0" y="130" width="10" height="10" fill="#818181" />
  <rect x="10" y="130" width="10" height="10" fill="#A8A8A8" />
  <rect x="20" y="130" width="10" height="10" fill="#767676" />
  <rect x="30" y="130" width="10" height="10" fill="#929292" />
  <rect x="40" y="130" width="10" height="10" fill="#7D7D7D" />
  <rect x="50" y="130" width="10" height="10" fill="#999999" />
  <rect x="60" y="130" width="10" height="10" fill="#818181" />
  <rect x="70" y="130" width="10" height="10" fill="#C3C3C3" />
  <rect x="80" y="130" width="10" height="10" fill="#A1A1A1" />
  <rect x="90" y="130" width="10" height="10" fill="#939393" />
  <rect x="100" y="130" width="10" height="10" fill="#A8A8A8" />
  <rect x="110" y="130" width="10" height="10" fill="#9B9B9B" />
  <rect x="120" y="130" width="10" height="10" fill="#A0A0A0" />
  <rect x="130" y="130" width="10" height="10" fill="#888888" />
  <rect x="140" y="130" width="10" height="10" fill="#A8A8A8" />
  <rect x="150" y="130" width="10" height="10" fill="#AEAEAE" />
  <rect x="0" y="140" width="10" height="10" fill="#A3A3A3" />
  <rect x="10" y="140" width="10" height="10" fill="#A1A1A1" />
  <rect x="20" y="140" width="10" height="10" fill="#C0C0C0" />
  <rect x="30" y="140" width="10" height="10" fill="#7B7B7B" />
  <rect x="40" y="140" width="10" height="10" fill="#B3B3B3" />
  <rect x="50" y="140" width="10" height="10" fill="#ABABAB" />
  <rect x="60" y="140" width="10" height="10" fill="#949494" />
  <rect x="70" y="140" width="10" height="10" fill="#939393" />
  <rect x="80" y="140" width="10" height="10" fill="#7E7E7E" />
  <rect x="90" y="140" width="10" height="10" fill="#959595" />
  <rect x="100" y="140" width="10" height="10" fill="#959595" />
  <rect x="110" y="140" width="10" height="10" fill="#878787" />
  <rect x="120" y="140" width="10" height="10" fill="#A9A9A9" />
  <rect x="130" y="140" width="10" height="10" fill="#9D9D9D" />
  <rect x="140" y="140" width="10" height="10" fill="#8B8B8B" />
  <rect x="150" y="140" width="10" height="10" fill="#797979" />
  <rect x="0" y="150" width="10" height="10" fill="#858585" />
  <rect x="10" y="150" width="10" height="10" fill="#969696" />
  <rect x="20" y="150" width="10" height="10" fill="#888888" />
  <rect x="30" y="150" width="10" height="10" fill="#898989" />
  <rect x="40" y="150" width="10" height="10" fill="#A4A4A4" />
  <rect x="50" y="150" width="10" height="10" fill="#989898" />
  <rect x="60" y="150" width="10" height="10" fill="#949494" />
  <rect x="70" y="150" width="10" height="10" fill="#939393" />
  <rect x="80" y="150" width="10" height="10" fill="#8E8E8E" />
  <rect x="90" y="150" width="10" height="10" fill="#BFBFBF" />
  <rect x="100" y="150" width="10" height="10" fill="#7C7C7C" />
  <rect x="110" y="150" width="10" height="10" fill="#A9A9A9" />
  <rect x="120" y="150" width="10" height="10" fill="#848484" />
  <rect x="130" y="150" width="10" height="10" fill="#909090" />
  <rect x="140" y="150" width="10" height="10" fill="#888888" />
  <rect x="150" y="150" width="10" height="10" fill="#9E9E9E" />
</svg>