<svg width="160" height="160" viewBox="0 0 160 160" xmlns="http://www.w3.org/2000/svg">
  <rect x="130" y="0" width="10" height="10" fill="#444444" />
  <rect x="140" y="0" width="10" height="10" fill="#444444" />
  <rect x="150" y="0" width="10" height="10" fill="#444444" />
  <rect x="120" y="10" width="10" height="10" fill="#444444" />
  <rect x="130" y="10" width="10" height="10" fill="#FFFFFF" />
  <rect x="140" y="10" width="10" height="10" fill="#FFFFFF" />
  <rect x="150" y="10" width="10" height="10" fill="#181818" />
  <rect x="110" y="20" width="10" height="10" fill="#444444" />
  <rect x="120" y="20" width="10" height="10" fill="#FFFFFF" />
  <rect x="130" y="20" width="10" height="10" fill="#BEBEBE" />
  <rect x="140" y="20" width="10" height="10" fill="#FFFFFF" />
  <rect x="150" y="20" width="10" height="10" fill="#181818" />
  <rect x="100" y="30" width="10" height="10" fill="#444444" />
  <rect x="110" y="30" width="10" height="10" fill="#FFFFFF" />
  <rect x="120" y="30" width="10" height="10" fill="#BEBEBE" />
  <rect x="130" y="30" width="10" height="10" fill="#FFFFFF" />
  <rect x="140" y="30" width="10" height="10" fill="#181818" />
  <rect x="90" y="40" width="10" height="10" fill="#444444" />
  <rect x="100" y="40" width="10" height="10" fill="#FFFFFF" />
  <rect x="110" y="40" width="10" height="10" fill="#BEBEBE" />
  <rect x="120" y="40" width="10" height="10" fill="#D8D8D8" />
  <rect x="130" y="40" width="10" height="10" fill="#181818" />
  <rect x="80" y="50" width="10" height="10" fill="#444444" />
  <rect x="90" y="50" width="10" height="10" fill="#FFFFFF" />
  <rect x="100" y="50" width="10" height="10" fill="#BEBEBE" />
  <rect x="110" y="50" width="10" height="10" fill="#D8D8D8" />
  <rect x="120" y="50" width="10" height="10" fill="#181818" />
  <rect x="20" y="60" width="10" height="10" fill="#444444" />
  <rect x="30" y="60" width="10" height="10" fill="#444444" />
  <rect x="70" y="60" width="10" height="10" fill="#444444" />
  <rect x="80" y="60" width="10" height="10" fill="#D8D8D8" />
  <rect x="90" y="60" width="10" height="10" fill="#BEBEBE" />
  <rect x="100" y="60" width="10" height="10" fill="#D8D8D8" />
  <rect x="110" y="60" width="10" height="10" fill="#181818" />
  <rect x="20" y="70" width="10" height="10" fill="#444444" />
  <rect x="30" y="70" width="10" height="10" fill="#6B6B6B" />
  <rect x="40" y="70" width="10" height="10" fill="#444444" />
  <rect x="60" y="70" width="10" height="10" fill="#444444" />
  <rect x="70" y="70" width="10" height="10" fill="#D8D8D8" />
  <rect x="80" y="70" width="10" height="10" fill="#BEBEBE" />
  <rect x="90" y="70" width="10" height="10" fill="#D8D8D8" />
  <rect x="100" y="70" width="10" height="10" fill="#181818" />
  <rect x="30" y="80" width="10" height="10" fill="#444444" />
  <rect x="40" y="80" width="10" height="10" fill="#969696" />
  <rect x="50" y="80" width="10" height="10" fill="#181818" />
  <rect x="60" y="80" width="10" height="10" fill="#D8D8D8" />
  <rect x="70" y="80" width="10" height="10" fill="#969696" />
  <rect x="80" y="80" width="10" height="10" fill="#D8D8D8" />
  <rect x="90" y="80" width="10" height="10" fill="#181818" />
  <rect x="30" y="90" width="10" height="10" fill="#444444" />
  <rect x="40" y="90" width="10" height="10" fill="#969696" />
  <rect x="50" y="90" width="10" height="10" fill="#969696" />
  <rect x="60" y="90" width="10" height="10" fill="#6B6B6B" />
  <rect x="70" y="90" width="10" height="10" fill="#D8D8D8" />
  <rect x="80" y="90" width="10" height="10" fill="#181818" />
  <rect x="40" y="100" width="10" height="10" fill="#444444" />
  <rect x="50" y="100" width="10" height="10" fill="#6B6B6B" />
  <rect x="60" y="100" width="10" height="10" fill="#444444" />
  <rect x="70" y="100" width="10" height="10" fill="#181818" />
  <rect x="30" y="110" width="10" height="10" fill="#493615" />
  <rect x="40" y="110" width="10" height="10" fill="#684E1E" />
  <rect x="50" y="110" width="10" height="10" fill="#181818" />
  <rect x="60" y="110" width="10" height="10" fill="#444444" />
  <rect x="70" y="110" width="10" height="10" fill="#444444" />
  <rect x="80" y="110" width="10" height="10" fill="#181818" />
  <rect x="20" y="120" width="10" height="10" fill="#493615" />
  <rect x="30" y="120" width="10" height="10" fill="#896727" />
  <rect x="40" y="120" width="10" height="10" fill="#281E0B" />
  <rect x="60" y="120" width="10" height="10" fill="#181818" />
  <rect x="70" y="120" width="10" height="10" fill="#181818" />
  <rect x="80" y="120" width="10" height="10" fill="#444444" />
  <rect x="90" y="120" width="10" height="10" fill="#181818" />
  <rect x="0" y="130" width="10" height="10" fill="#444444" />
  <rect x="10" y="130" width="10" height="10" fill="#444444" />
  <rect x="20" y="130" width="10" height="10" fill="#684E1E" />
  <rect x="30" y="130" width="10" height="10" fill="#281E0B" />
  <rect x="80" y="130" width="10" height="10" fill="#181818" />
  <rect x="90" y="130" width="10" height="10" fill="#181818" />
  <rect x="0" y="140" width="10" height="10" fill="#444444" />
  <rect x="10" y="140" width="10" height="10" fill="#6B6B6B" />
  <rect x="20" y="140" width="10" height="10" fill="#181818" />
  <rect x="0" y="150" width="10" height="10" fill="#181818" />
  <rect x="10" y="150" width="10" height="10" fill="#181818" />
  <rect x="20" y="150" width="10" height="10" fill="#181818" />
</svg>