<svg width="160" height="160" viewBox="0 0 160 160" xmlns="http://www.w3.org/2000/svg">
  <rect x="100" y="20" width="10" height="10" fill="#271C1D" />
  <rect x="110" y="20" width="10" height="10" fill="#271C1D" />
  <rect x="70" y="30" width="10" height="10" fill="#271C1D" />
  <rect x="80" y="30" width="10" height="10" fill="#271C1D" />
  <rect x="90" y="30" width="10" height="10" fill="#271C1D" />
  <rect x="100" y="30" width="10" height="10" fill="#4C4143" />
  <rect x="110" y="30" width="10" height="10" fill="#4C4143" />
  <rect x="120" y="30" width="10" height="10" fill="#31292A" />
  <rect x="40" y="40" width="10" height="10" fill="#271C1D" />
  <rect x="50" y="40" width="10" height="10" fill="#271C1D" />
  <rect x="60" y="40" width="10" height="10" fill="#271C1D" />
  <rect x="70" y="40" width="10" height="10" fill="#484548" />
  <rect x="80" y="40" width="10" height="10" fill="#484548" />
  <rect x="90" y="40" width="10" height="10" fill="#4D494D" />
  <rect x="100" y="40" width="10" height="10" fill="#4D494D" />
  <rect x="110" y="40" width="10" height="10" fill="#4C4143" />
  <rect x="120" y="40" width="10" height="10" fill="#4C4143" />
  <rect x="130" y="40" width="10" height="10" fill="#31292A" />
  <rect x="10" y="50" width="10" height="10" fill="#271C1D" />
  <rect x="20" y="50" width="10" height="10" fill="#271C1D" />
  <rect x="30" y="50" width="10" height="10" fill="#271C1D" />
  <rect x="40" y="50" width="10" height="10" fill="#484548" />
  <rect x="50" y="50" width="10" height="10" fill="#484548" />
  <rect x="60" y="50" width="10" height="10" fill="#4D494D" />
  <rect x="70" y="50" width="10" height="10" fill="#5A575A" />
  <rect x="80" y="50" width="10" height="10" fill="#5A575A" />
  <rect x="90" y="50" width="10" height="10" fill="#5A575A" />
  <rect x="100" y="50" width="10" height="10" fill="#5A575A" />
  <rect x="110" y="50" width="10" height="10" fill="#4D494D" />
  <rect x="120" y="50" width="10" height="10" fill="#4D494D" />
  <rect x="130" y="50" width="10" height="10" fill="#484548" />
  <rect x="140" y="50" width="10" height="10" fill="#31292A" />
  <rect x="0" y="60" width="10" height="10" fill="#271C1D" />
  <rect x="10" y="60" width="10" height="10" fill="#5A575A" />
  <rect x="20" y="60" width="10" height="10" fill="#4C4143" />
  <rect x="30" y="60" width="10" height="10" fill="#4C4143" />
  <rect x="40" y="60" width="10" height="10" fill="#4D494D" />
  <rect x="50" y="60" width="10" height="10" fill="#4C4143" />
  <rect x="60" y="60" width="10" height="10" fill="#4D494D" />
  <rect x="70" y="60" width="10" height="10" fill="#4D494D" />
  <rect x="80" y="60" width="10" height="10" fill="#5A575A" />
  <rect x="90" y="60" width="10" height="10" fill="#5A575A" />
  <rect x="100" y="60" width="10" height="10" fill="#5A575A" />
  <rect x="110" y="60" width="10" height="10" fill="#5A575A" />
  <rect x="120" y="60" width="10" height="10" fill="#737173" />
  <rect x="130" y="60" width="10" height="10" fill="#737173" />
  <rect x="140" y="60" width="10" height="10" fill="#484548" />
  <rect x="150" y="60" width="10" height="10" fill="#31292A" />
  <rect x="0" y="70" width="10" height="10" fill="#271C1D" />
  <rect x="10" y="70" width="10" height="10" fill="#4C4143" />
  <rect x="20" y="70" width="10" height="10" fill="#737173" />
  <rect x="30" y="70" width="10" height="10" fill="#5A575A" />
  <rect x="40" y="70" width="10" height="10" fill="#5A575A" />
  <rect x="50" y="70" width="10" height="10" fill="#4D494D" />
  <rect x="60" y="70" width="10" height="10" fill="#4D494D" />
  <rect x="70" y="70" width="10" height="10" fill="#4D494D" />
  <rect x="80" y="70" width="10" height="10" fill="#4C4143" />
  <rect x="90" y="70" width="10" height="10" fill="#737173" />
  <rect x="100" y="70" width="10" height="10" fill="#737173" />
  <rect x="110" y="70" width="10" height="10" fill="#737173" />
  <rect x="120" y="70" width="10" height="10" fill="#484548" />
  <rect x="130" y="70" width="10" height="10" fill="#31292A" />
  <rect x="140" y="70" width="10" height="10" fill="#3B393B" />
  <rect x="150" y="70" width="10" height="10" fill="#111111" />
  <rect x="0" y="80" width="10" height="10" fill="#271C1D" />
  <rect x="10" y="80" width="10" height="10" fill="#3C3232" />
  <rect x="20" y="80" width="10" height="10" fill="#3C3232" />
  <rect x="30" y="80" width="10" height="10" fill="#737173" />
  <rect x="40" y="80" width="10" height="10" fill="#5A575A" />
  <rect x="50" y="80" width="10" height="10" fill="#5A575A" />
  <rect x="60" y="80" width="10" height="10" fill="#737173" />
  <rect x="70" y="80" width="10" height="10" fill="#737173" />
  <rect x="80" y="80" width="10" height="10" fill="#737173" />
  <rect x="90" y="80" width="10" height="10" fill="#484548" />
  <rect x="100" y="80" width="10" height="10" fill="#3C3232" />
  <rect x="110" y="80" width="10" height="10" fill="#31292A" />
  <rect x="120" y="80" width="10" height="10" fill="#31292A" />
  <rect x="130" y="80" width="10" height="10" fill="#3C3232" />
  <rect x="140" y="80" width="10" height="10" fill="#3B393B" />
  <rect x="150" y="80" width="10" height="10" fill="#111111" />
  <rect x="0" y="90" width="10" height="10" fill="#271C1D" />
  <rect x="10" y="90" width="10" height="10" fill="#3B393B" />
  <rect x="20" y="90" width="10" height="10" fill="#3B393B" />
  <rect x="30" y="90" width="10" height="10" fill="#3B393B" />
  <rect x="40" y="90" width="10" height="10" fill="#737173" />
  <rect x="50" y="90" width="10" height="10" fill="#737173" />
  <rect x="60" y="90" width="10" height="10" fill="#484548" />
  <rect x="70" y="90" width="10" height="10" fill="#3C3232" />
  <rect x="80" y="90" width="10" height="10" fill="#31292A" />
  <rect x="90" y="90" width="10" height="10" fill="#31292A" />
  <rect x="100" y="90" width="10" height="10" fill="#31292A" />
  <rect x="110" y="90" width="10" height="10" fill="#31292A" />
  <rect x="120" y="90" width="10" height="10" fill="#3B393B" />
  <rect x="130" y="90" width="10" height="10" fill="#3B393B" />
  <rect x="140" y="90" width="10" height="10" fill="#3B393B" />
  <rect x="150" y="90" width="10" height="10" fill="#111111" />
  <rect x="0" y="100" width="10" height="10" fill="#271C1D" />
  <rect x="10" y="100" width="10" height="10" fill="#3C3232" />
  <rect x="20" y="100" width="10" height="10" fill="#3B393B" />
  <rect x="30" y="100" width="10" height="10" fill="#3B393B" />
  <rect x="40" y="100" width="10" height="10" fill="#484548" />
  <rect x="50" y="100" width="10" height="10" fill="#3B393B" />
  <rect x="60" y="100" width="10" height="10" fill="#31292A" />
  <rect x="70" y="100" width="10" height="10" fill="#31292A" />
  <rect x="80" y="100" width="10" height="10" fill="#31292A" />
  <rect x="90" y="100" width="10" height="10" fill="#31292A" />
  <rect x="100" y="100" width="10" height="10" fill="#3C3232" />
  <rect x="110" y="100" width="10" height="10" fill="#3B393B" />
  <rect x="120" y="100" width="10" height="10" fill="#3C3232" />
  <rect x="130" y="100" width="10" height="10" fill="#111111" />
  <rect x="140" y="100" width="10" height="10" fill="#111111" />
  <rect x="10" y="110" width="10" height="10" fill="#31292A" />
  <rect x="20" y="110" width="10" height="10" fill="#3C3232" />
  <rect x="30" y="110" width="10" height="10" fill="#3B393B" />
  <rect x="40" y="110" width="10" height="10" fill="#484548" />
  <rect x="50" y="110" width="10" height="10" fill="#3C3232" />
  <rect x="60" y="110" width="10" height="10" fill="#31292A" />
  <rect x="70" y="110" width="10" height="10" fill="#31292A" />
  <rect x="80" y="110" width="10" height="10" fill="#3C3232" />
  <rect x="90" y="110" width="10" height="10" fill="#3C3232" />
  <rect x="100" y="110" width="10" height="10" fill="#111111" />
  <rect x="110" y="110" width="10" height="10" fill="#111111" />
  <rect x="120" y="110" width="10" height="10" fill="#111111" />
  <rect x="20" y="120" width="10" height="10" fill="#31292A" />
  <rect x="30" y="120" width="10" height="10" fill="#3C3232" />
  <rect x="40" y="120" width="10" height="10" fill="#3B393B" />
  <rect x="50" y="120" width="10" height="10" fill="#3C3232" />
  <rect x="60" y="120" width="10" height="10" fill="#31292A" />
  <rect x="70" y="120" width="10" height="10" fill="#111111" />
  <rect x="80" y="120" width="10" height="10" fill="#111111" />
  <rect x="90" y="120" width="10" height="10" fill="#111111" />
  <rect x="30" y="130" width="10" height="10" fill="#31292A" />
  <rect x="40" y="130" width="10" height="10" fill="#31292A" />
  <rect x="50" y="130" width="10" height="10" fill="#111111" />
  <rect x="60" y="130" width="10" height="10" fill="#111111" />
</svg>