<svg width="160" height="160" viewBox="0 0 160 160" xmlns="http://www.w3.org/2000/svg">
  <rect x="70" y="60" width="10" height="10" fill="#FFD800" />
  <rect x="80" y="60" width="10" height="10" fill="#FF8F00" />
  <rect x="70" y="70" width="10" height="10" fill="#FFFF97" />
  <rect x="80" y="70" width="10" height="10" fill="#FFFFFF" />
  <rect x="70" y="80" width="10" height="10" fill="#9F7F50" />
  <rect x="80" y="80" width="10" height="10" fill="#6D5736" />
  <rect x="70" y="90" width="10" height="10" fill="#957546" />
  <rect x="80" y="90" width="10" height="10" fill="#55452E" />
  <rect x="70" y="100" width="10" height="10" fill="#9F7F50" />
  <rect x="80" y="100" width="10" height="10" fill="#423522" />
  <rect x="70" y="110" width="10" height="10" fill="#9F7F50" />
  <rect x="80" y="110" width="10" height="10" fill="#55452E" />
  <rect x="70" y="120" width="10" height="10" fill="#957546" />
  <rect x="80" y="120" width="10" height="10" fill="#55452E" />
  <rect x="70" y="130" width="10" height="10" fill="#6D5736" />
  <rect x="80" y="130" width="10" height="10" fill="#3D301D" />
  <rect x="70" y="140" width="10" height="10" fill="#9F7F50" />
  <rect x="80" y="140" width="10" height="10" fill="#3B2E1B" />
  <rect x="70" y="150" width="10" height="10" fill="#6D5736" />
  <rect x="80" y="150" width="10" height="10" fill="#372A17" />
</svg>