<svg width="160" height="160" viewBox="0 0 160 160" xmlns="http://www.w3.org/2000/svg">
  <rect x="50" y="10" width="10" height="10" fill="#353535" />
  <rect x="60" y="10" width="10" height="10" fill="#353535" />
  <rect x="70" y="10" width="10" height="10" fill="#353535" />
  <rect x="80" y="10" width="10" height="10" fill="#353535" />
  <rect x="90" y="10" width="10" height="10" fill="#353535" />
  <rect x="100" y="10" width="10" height="10" fill="#353535" />
  <rect x="30" y="20" width="10" height="10" fill="#353535" />
  <rect x="40" y="20" width="10" height="10" fill="#353535" />
  <rect x="50" y="20" width="10" height="10" fill="#787878" />
  <rect x="60" y="20" width="10" height="10" fill="#787878" />
  <rect x="70" y="20" width="10" height="10" fill="#989898" />
  <rect x="80" y="20" width="10" height="10" fill="#989898" />
  <rect x="90" y="20" width="10" height="10" fill="#989898" />
  <rect x="100" y="20" width="10" height="10" fill="#989898" />
  <rect x="110" y="20" width="10" height="10" fill="#353535" />
  <rect x="120" y="20" width="10" height="10" fill="#353535" />
  <rect x="20" y="30" width="10" height="10" fill="#353535" />
  <rect x="30" y="30" width="10" height="10" fill="#787878" />
  <rect x="40" y="30" width="10" height="10" fill="#234FCC" />
  <rect x="50" y="30" width="10" height="10" fill="#2E58D3" />
  <rect x="60" y="30" width="10" height="10" fill="#446FE9" />
  <rect x="70" y="30" width="10" height="10" fill="#345FDA" />
  <rect x="80" y="30" width="10" height="10" fill="#345FDA" />
  <rect x="90" y="30" width="10" height="10" fill="#2E58D3" />
  <rect x="100" y="30" width="10" height="10" fill="#2E58D3" />
  <rect x="110" y="30" width="10" height="10" fill="#234FCC" />
  <rect x="120" y="30" width="10" height="10" fill="#787878" />
  <rect x="130" y="30" width="10" height="10" fill="#353535" />
  <rect x="20" y="40" width="10" height="10" fill="#353535" />
  <rect x="30" y="40" width="10" height="10" fill="#234FCC" />
  <rect x="40" y="40" width="10" height="10" fill="#446FE9" />
  <rect x="50" y="40" width="10" height="10" fill="#5A82F3" />
  <rect x="60" y="40" width="10" height="10" fill="#5A82F3" />
  <rect x="70" y="40" width="10" height="10" fill="#446FE9" />
  <rect x="80" y="40" width="10" height="10" fill="#345FDA" />
  <rect x="90" y="40" width="10" height="10" fill="#5A82F3" />
  <rect x="100" y="40" width="10" height="10" fill="#345FDA" />
  <rect x="110" y="40" width="10" height="10" fill="#446FE9" />
  <rect x="120" y="40" width="10" height="10" fill="#234FCC" />
  <rect x="130" y="40" width="10" height="10" fill="#353535" />
  <rect x="20" y="50" width="10" height="10" fill="#353535" />
  <rect x="30" y="50" width="10" height="10" fill="#353535" />
  <rect x="40" y="50" width="10" height="10" fill="#353535" />
  <rect x="50" y="50" width="10" height="10" fill="#234FCC" />
  <rect x="60" y="50" width="10" height="10" fill="#345FDA" />
  <rect x="70" y="50" width="10" height="10" fill="#446FE9" />
  <rect x="80" y="50" width="10" height="10" fill="#446FE9" />
  <rect x="90" y="50" width="10" height="10" fill="#345FDA" />
  <rect x="100" y="50" width="10" height="10" fill="#234FCC" />
  <rect x="110" y="50" width="10" height="10" fill="#353535" />
  <rect x="120" y="50" width="10" height="10" fill="#353535" />
  <rect x="130" y="50" width="10" height="10" fill="#353535" />
  <rect x="20" y="60" width="10" height="10" fill="#353535" />
  <rect x="30" y="60" width="10" height="10" fill="#D8D8D8" />
  <rect x="40" y="60" width="10" height="10" fill="#A8A8A8" />
  <rect x="50" y="60" width="10" height="10" fill="#353535" />
  <rect x="60" y="60" width="10" height="10" fill="#353535" />
  <rect x="70" y="60" width="10" height="10" fill="#353535" />
  <rect x="80" y="60" width="10" height="10" fill="#353535" />
  <rect x="90" y="60" width="10" height="10" fill="#353535" />
  <rect x="100" y="60" width="10" height="10" fill="#353535" />
  <rect x="110" y="60" width="10" height="10" fill="#727272" />
  <rect x="120" y="60" width="10" height="10" fill="#969696" />
  <rect x="130" y="60" width="10" height="10" fill="#353535" />
  <rect x="20" y="70" width="10" height="10" fill="#353535" />
  <rect x="30" y="70" width="10" height="10" fill="#D8D8D8" />
  <rect x="40" y="70" width="10" height="10" fill="#D8D8D8" />
  <rect x="50" y="70" width="10" height="10" fill="#D8D8D8" />
  <rect x="60" y="70" width="10" height="10" fill="#D8D8D8" />
  <rect x="70" y="70" width="10" height="10" fill="#A8A8A8" />
  <rect x="80" y="70" width="10" height="10" fill="#A8A8A8" />
  <rect x="90" y="70" width="10" height="10" fill="#969696" />
  <rect x="100" y="70" width="10" height="10" fill="#727272" />
  <rect x="110" y="70" width="10" height="10" fill="#727272" />
  <rect x="120" y="70" width="10" height="10" fill="#969696" />
  <rect x="130" y="70" width="10" height="10" fill="#353535" />
  <rect x="20" y="80" width="10" height="10" fill="#353535" />
  <rect x="30" y="80" width="10" height="10" fill="#D8D8D8" />
  <rect x="40" y="80" width="10" height="10" fill="#D8D8D8" />
  <rect x="50" y="80" width="10" height="10" fill="#FFFFFF" />
  <rect x="60" y="80" width="10" height="10" fill="#D8D8D8" />
  <rect x="70" y="80" width="10" height="10" fill="#A8A8A8" />
  <rect x="80" y="80" width="10" height="10" fill="#A8A8A8" />
  <rect x="90" y="80" width="10" height="10" fill="#969696" />
  <rect x="100" y="80" width="10" height="10" fill="#727272" />
  <rect x="110" y="80" width="10" height="10" fill="#727272" />
  <rect x="120" y="80" width="10" height="10" fill="#A8A8A8" />
  <rect x="130" y="80" width="10" height="10" fill="#353535" />
  <rect x="20" y="90" width="10" height="10" fill="#353535" />
  <rect x="30" y="90" width="10" height="10" fill="#A8A8A8" />
  <rect x="40" y="90" width="10" height="10" fill="#D8D8D8" />
  <rect x="50" y="90" width="10" height="10" fill="#FFFFFF" />
  <rect x="60" y="90" width="10" height="10" fill="#D8D8D8" />
  <rect x="70" y="90" width="10" height="10" fill="#A8A8A8" />
  <rect x="80" y="90" width="10" height="10" fill="#A8A8A8" />
  <rect x="90" y="90" width="10" height="10" fill="#969696" />
  <rect x="100" y="90" width="10" height="10" fill="#727272" />
  <rect x="110" y="90" width="10" height="10" fill="#727272" />
  <rect x="120" y="90" width="10" height="10" fill="#A8A8A8" />
  <rect x="130" y="90" width="10" height="10" fill="#353535" />
  <rect x="20" y="100" width="10" height="10" fill="#353535" />
  <rect x="30" y="100" width="10" height="10" fill="#727272" />
  <rect x="40" y="100" width="10" height="10" fill="#D8D8D8" />
  <rect x="50" y="100" width="10" height="10" fill="#FFFFFF" />
  <rect x="60" y="100" width="10" height="10" fill="#D8D8D8" />
  <rect x="70" y="100" width="10" height="10" fill="#A8A8A8" />
  <rect x="80" y="100" width="10" height="10" fill="#A8A8A8" />
  <rect x="90" y="100" width="10" height="10" fill="#969696" />
  <rect x="100" y="100" width="10" height="10" fill="#727272" />
  <rect x="110" y="100" width="10" height="10" fill="#727272" />
  <rect x="120" y="100" width="10" height="10" fill="#969696" />
  <rect x="130" y="100" width="10" height="10" fill="#353535" />
  <rect x="30" y="110" width="10" height="10" fill="#353535" />
  <rect x="40" y="110" width="10" height="10" fill="#D8D8D8" />
  <rect x="50" y="110" width="10" height="10" fill="#D8D8D8" />
  <rect x="60" y="110" width="10" height="10" fill="#D8D8D8" />
  <rect x="70" y="110" width="10" height="10" fill="#A8A8A8" />
  <rect x="80" y="110" width="10" height="10" fill="#A8A8A8" />
  <rect x="90" y="110" width="10" height="10" fill="#969696" />
  <rect x="100" y="110" width="10" height="10" fill="#727272" />
  <rect x="110" y="110" width="10" height="10" fill="#969696" />
  <rect x="120" y="110" width="10" height="10" fill="#353535" />
  <rect x="30" y="120" width="10" height="10" fill="#353535" />
  <rect x="40" y="120" width="10" height="10" fill="#A8A8A8" />
  <rect x="50" y="120" width="10" height="10" fill="#D8D8D8" />
  <rect x="60" y="120" width="10" height="10" fill="#D8D8D8" />
  <rect x="70" y="120" width="10" height="10" fill="#A8A8A8" />
  <rect x="80" y="120" width="10" height="10" fill="#969696" />
  <rect x="90" y="120" width="10" height="10" fill="#969696" />
  <rect x="100" y="120" width="10" height="10" fill="#727272" />
  <rect x="110" y="120" width="10" height="10" fill="#969696" />
  <rect x="120" y="120" width="10" height="10" fill="#353535" />
  <rect x="40" y="130" width="10" height="10" fill="#353535" />
  <rect x="50" y="130" width="10" height="10" fill="#A8A8A8" />
  <rect x="60" y="130" width="10" height="10" fill="#D8D8D8" />
  <rect x="70" y="130" width="10" height="10" fill="#A8A8A8" />
  <rect x="80" y="130" width="10" height="10" fill="#969696" />
  <rect x="90" y="130" width="10" height="10" fill="#727272" />
  <rect x="100" y="130" width="10" height="10" fill="#969696" />
  <rect x="110" y="130" width="10" height="10" fill="#353535" />
  <rect x="50" y="140" width="10" height="10" fill="#353535" />
  <rect x="60" y="140" width="10" height="10" fill="#353535" />
  <rect x="70" y="140" width="10" height="10" fill="#353535" />
  <rect x="80" y="140" width="10" height="10" fill="#353535" />
  <rect x="90" y="140" width="10" height="10" fill="#353535" />
  <rect x="100" y="140" width="10" height="10" fill="#353535" />
</svg>